<?xml version="1.0" encoding="UTF-8" standalone="no"?>
<svg
   xmlns:dc="http://purl.org/dc/elements/1.1/"
   xmlns:cc="http://creativecommons.org/ns#"
   xmlns:rdf="http://www.w3.org/1999/02/22-rdf-syntax-ns#"
   xmlns:svg="http://www.w3.org/2000/svg"
   xmlns="http://www.w3.org/2000/svg"
   xmlns:sodipodi="http://sodipodi.sourceforge.net/DTD/sodipodi-0.dtd"
   xmlns:inkscape="http://www.inkscape.org/namespaces/inkscape"
   viewBox="0 0 4096 4096"
   version="1.1"
   id="svg10"
   sodipodi:docname="infomoney-logo.svg"
   width="4096"
   height="4096"
   inkscape:export-filename="C:\Users\suitedoalex\sites\infomoney-logo-0.png"
   inkscape:export-xdpi="96"
   inkscape:export-ydpi="96"
   inkscape:version="0.92.2 (5c3e80d, 2017-08-06)">
  <metadata
     id="metadata16">
    <rdf:RDF>
      <cc:Work
         rdf:about="">
        <dc:format>image/svg+xml</dc:format>
        <dc:type
           rdf:resource="http://purl.org/dc/dcmitype/StillImage" />
        <dc:title></dc:title>
      </cc:Work>
    </rdf:RDF>
  </metadata>
  <defs
     id="defs14" />
  <sodipodi:namedview
     pagecolor="#ffffff"
     bordercolor="#666666"
     borderopacity="1"
     objecttolerance="10"
     gridtolerance="10"
     guidetolerance="10"
     inkscape:pageopacity="0"
     inkscape:pageshadow="2"
     inkscape:window-width="1600"
     inkscape:window-height="837"
     id="namedview12"
     showgrid="false"
     inkscape:zoom="0.10543467"
     inkscape:cx="106.72828"
     inkscape:cy="1717.4434"
     inkscape:window-x="-8"
     inkscape:window-y="-8"
     inkscape:window-maximized="1"
     inkscape:current-layer="svg10" />
  <g
     id="g8"
     style="opacity:1;fill:#00000c;fill-rule:evenodd;fill-opacity:1"
     transform="matrix(25.335329,0,0,25.335329,274.52697,1693.3054)"
     inkscape:export-filename="C:\Users\suitedoalex\sites\infomoney-logo-4.png"
     inkscape:export-xdpi="10.826214"
     inkscape:export-ydpi="10.826214">
    <path
       d="m 140,5.6 h -4.985 c 0,0 -2.832,9.754 -3.347,10.929 0,0 -3.166,-8.617 -3.641,-10.929 h -5.112 c 0,0 2.457,8.447 6.41,15.873 l -0.01,0.033 a 3.947,3.947 0 0 1 -1.57,1.876 c -0.34,0.216 -0.72,0.384 -1.12,0.492 -0.414,0.11 -0.83,0.135 -1.255,0.14 -0.23,0.005 -1.777,-0.003 -1.777,-0.003 V 28 c 0,0 2.687,0 2.687,-0.002 0.056,0 0.113,-0.01 0.169,-0.01 h 0.142 v -0.01 c 0.39,-0.019 0.774,-0.061 1.143,-0.142 a 7.185,7.185 0 0 0 4.12,-2.536 l 0.004,0.007 C 136.244,20.074 140,5.6 140,5.6 M 85.828,17.148 c -0.59,0.84 -1.434,1.263 -2.524,1.263 -1.095,0 -1.94,-0.423 -2.54,-1.263 -0.6,-0.842 -0.898,-1.98 -0.898,-3.413 0,-1.434 0.298,-2.561 0.899,-3.38 0.6,-0.822 1.444,-1.232 2.54,-1.232 1.09,0 1.932,0.41 2.523,1.232 0.587,0.819 0.882,1.946 0.882,3.38 0,1.434 -0.295,2.571 -0.882,3.413 M 89.282,7.5 A 7.669,7.669 0 0 0 86.662,5.756 C 85.643,5.342 84.525,5.133 83.304,5.133 c -1.2,0 -2.31,0.209 -3.323,0.623 A 7.8,7.8 0 0 0 77.342,7.5 c -0.738,0.75 -1.317,1.655 -1.733,2.714 -0.418,1.06 -0.626,2.232 -0.626,3.521 0,1.29 0.2,2.47 0.608,3.537 0.406,1.07 0.975,1.988 1.704,2.744 0.728,0.76 1.6,1.345 2.62,1.76 1.015,0.414 2.145,0.624 3.39,0.624 1.263,0 2.401,-0.21 3.42,-0.625 a 7.523,7.523 0 0 0 2.62,-1.759 c 0.728,-0.756 1.284,-1.675 1.67,-2.744 0.387,-1.067 0.578,-2.248 0.578,-3.537 0,-1.289 -0.2,-2.462 -0.61,-3.521 C 90.578,9.155 90.009,8.25 89.282,7.5 m 16.416,-0.219 c -0.56,-0.682 -1.32,-1.213 -2.284,-1.59 -0.96,-0.375 -2.165,-0.558 -3.612,-0.558 -1.428,0 -2.786,0.099 -4.084,0.303 -1.295,0.203 -2.352,0.423 -3.176,0.656 V 22.4 h 4.83 V 9.368 c 0.303,-0.044 0.646,-0.083 1.038,-0.114 0.387,-0.03 0.755,-0.046 1.1,-0.046 1.124,0 1.888,0.321 2.303,0.963 0.41,0.64 0.616,1.734 0.616,3.272 V 22.4 h 4.825 v -9.535 c 0,-1.154 -0.119,-2.202 -0.355,-3.147 -0.24,-0.94 -0.638,-1.75 -1.201,-2.437 M 67.714,3.046 a 133.224,133.224 0 0 0 -1.57,3.324 c -0.543,1.19 -1.083,2.41 -1.617,3.654 -0.533,1.245 -1.037,2.418 -1.504,3.514 -0.468,-1.096 -0.97,-2.27 -1.507,-3.514 A 179.297,179.297 0 0 0 59.902,6.37 149.145,149.145 0 0 0 58.332,3.046 62.216,62.216 0 0 0 57.006,0.466 H 51.73 V 22.4 h 5.033 V 9.546 l 0.598,1.237 c 0.466,1.077 0.934,2.153 1.39,3.23 0.461,1.076 0.907,2.103 1.332,3.085 l 1.09,2.516 h 3.48 c 0.298,-0.697 0.662,-1.535 1.09,-2.516 0.427,-0.982 0.87,-2.01 1.329,-3.085 0.458,-1.077 0.921,-2.153 1.395,-3.23 0.184,-0.428 0.364,-0.84 0.536,-1.237 V 22.4 h 5.032 V 0.467 H 69.04 c 0,0 -0.841,1.59 -1.327,2.579"
       id="path2"
       inkscape:connector-curvature="0"
       style="fill:#00000c;fill-opacity:1" />
    <path
       d="m 112.88,10.945 a 3.03,3.03 0 0 1 0.59,-1.012 c 0.252,-0.29 0.568,-0.525 0.945,-0.703 0.384,-0.176 0.839,-0.265 1.368,-0.265 0.548,0 1.006,0.097 1.377,0.284 a 2.82,2.82 0 0 1 1.458,1.711 c 0.117,0.375 0.188,0.76 0.207,1.154 h -6.244 a 6.16,6.16 0 0 1 0.3,-1.169 m 4.295,7.465 c -1.354,0 -2.43,-0.28 -3.235,-0.842 -0.802,-0.561 -1.254,-1.318 -1.36,-2.272 h 10.713 c 0.02,-0.253 0.041,-0.537 0.064,-0.86 0.016,-0.32 0.032,-0.619 0.032,-0.888 0,-2.763 -0.688,-4.858 -2.06,-6.278 -1.375,-1.424 -3.246,-2.137 -5.613,-2.137 a 8.104,8.104 0 0 0 -2.965,0.564 c -0.96,0.372 -1.81,0.924 -2.548,1.65 -0.742,0.726 -1.339,1.634 -1.795,2.725 -0.453,1.092 -0.68,2.366 -0.68,3.818 0,1.207 0.175,2.328 0.525,3.367 a 7.011,7.011 0 0 0 1.615,2.694 c 0.729,0.762 1.648,1.358 2.757,1.794 1.11,0.437 2.413,0.655 3.916,0.655 0.593,0 1.183,-0.031 1.774,-0.094 0.592,-0.06 1.146,-0.141 1.666,-0.235 0.517,-0.093 0.987,-0.2 1.41,-0.326 0.136,-0.04 0.249,-0.082 0.37,-0.121 v -4.02 c -0.525,0.228 -1.204,0.417 -2.036,0.572 -0.831,0.158 -1.682,0.234 -2.55,0.234 M 20.274,7.281 C 19.711,6.599 18.952,6.068 17.991,5.691 17.031,5.316 15.827,5.133 14.378,5.133 12.952,5.133 11.59,5.232 10.294,5.436 8.999,5.639 7.941,5.859 7.119,6.092 V 22.4 h 4.828 V 9.368 c 0.302,-0.044 0.647,-0.083 1.038,-0.114 0.388,-0.03 0.753,-0.046 1.1,-0.046 1.124,0 1.89,0.321 2.302,0.963 0.409,0.64 0.613,1.734 0.613,3.272 V 22.4 h 4.83 v -9.535 c 0,-1.154 -0.119,-2.202 -0.356,-3.147 -0.24,-0.94 -0.64,-1.75 -1.2,-2.437 m 24.265,9.867 c -0.588,0.84 -1.43,1.263 -2.524,1.263 -1.09,0 -1.937,-0.423 -2.54,-1.263 -0.597,-0.842 -0.897,-1.98 -0.897,-3.413 0,-1.434 0.3,-2.561 0.897,-3.38 0.603,-0.822 1.45,-1.232 2.54,-1.232 1.094,0 1.936,0.41 2.524,1.232 0.59,0.819 0.882,1.946 0.882,3.38 0,1.434 -0.292,2.571 -0.882,3.413 M 47.989,7.5 A 7.603,7.603 0 0 0 45.374,5.756 c -1.017,-0.414 -2.137,-0.623 -3.36,-0.623 -1.198,0 -2.306,0.209 -3.322,0.623 A 7.792,7.792 0 0 0 36.055,7.5 c -0.738,0.75 -1.317,1.655 -1.734,2.714 -0.418,1.06 -0.626,2.232 -0.626,3.521 0,1.29 0.2,2.47 0.61,3.537 0.405,1.07 0.975,1.988 1.703,2.744 0.726,0.76 1.6,1.345 2.62,1.76 1.016,0.414 2.145,0.624 3.387,0.624 1.264,0 2.406,-0.21 3.424,-0.625 a 7.503,7.503 0 0 0 2.618,-1.759 c 0.727,-0.756 1.286,-1.675 1.672,-2.744 0.386,-1.067 0.576,-2.248 0.576,-3.537 0,-1.289 -0.204,-2.462 -0.612,-3.521 C 49.29,9.155 48.721,8.25 47.988,7.5 M 0,22.4 H 4.746 V 0.467 H 0 Z"
       id="path4"
       inkscape:connector-curvature="0"
       style="fill:#00000c;fill-opacity:1" />
    <path
       d="m 28.673,5.674 a 1.74,1.74 0 0 1 0.959,-1.503 1.28,1.28 0 0 1 0.09,-0.045 c 0.005,-0.002 0.009,-0.002 0.015,-0.006 0.067,-0.027 0.132,-0.05 0.195,-0.07 0.412,-0.13 0.814,-0.112 1.24,-0.112 h 3.472 V 0 H 29.582 C 26.37,0 23.762,2.496 23.737,5.587 L 23.743,5.586 C 23.729,5.926 23.729,22.4 23.729,22.4 h 4.94 V 11.46 h 5.305 V 7.557 h -5.301 z"
       id="path6"
       inkscape:connector-curvature="0"
       style="fill:#00000c;fill-opacity:1" />
  </g>
</svg>
